{
	"asset":{
		"generator":"Khronos glTF Blender I/O v4.2.60",
		"version":"2.0"
	},
	"scene":0,
	"scenes":[
		{
			"name":"Scene",
			"nodes":[
				0
			]
		}
	],
	"nodes":[
		{
			"mesh":0,
			"name":"tripo_node_3ffef79c-c46d-4446-b2a3-c1e699c68638",
			"scale":[
				10.8281888961792,
				10.8281888961792,
				10.8281888961792
			],
			"translation":[
				0,
				4.819066047668457,
				0
			]
		}
	],
	"materials":[
		{
			"alphaMode":"BLEND",
			"doubleSided":true,
			"name":"tripo_mat_3ffef79c-c46d-4446-b2a3-c1e699c68638",
			"normalTexture":{
				"index":0
			},
			"pbrMetallicRoughness":{
				"baseColorTexture":{
					"index":1
				},
				"metallicRoughnessTexture":{
					"index":2
				}
			}
		}
	],
	"meshes":[
		{
			"name":"tripo_mesh_3ffef79c-c46d-4446-b2a3-c1e699c68638",
			"primitives":[
				{
					"attributes":{
						"POSITION":0,
						"NORMAL":1,
						"TEXCOORD_0":2
					},
					"indices":3,
					"material":0
				}
			]
		}
	],
	"textures":[
		{
			"sampler":0,
			"source":0
		},
		{
			"sampler":0,
			"source":1
		},
		{
			"sampler":0,
			"source":2
		}
	],
	"images":[
		{
			"mimeType":"image/png",
			"name":"Normal_Bake.jpg",
			"uri":"Normal_Bake_jpg.png"
		},
		{
			"mimeType":"image/png",
			"name":"Diffuse_Bake.jpg",
			"uri":"Diffuse_Bake_jpg.png"
		},
		{
			"mimeType":"image/png",
			"name":"tripo_image_3ffef79c-c46d-4446-b2a3-c1e699c68638_1-tripo_image_3ffef79c-c46d-4446-b2a3-c1e699c68638_2",
			"uri":"tripo_image_3ffef79c-c46d-4446-b2a3-c1e699c68638_1-tripo_image_3ffef79c-c46d-4446-b2a3-c1e699c68638_2.png"
		}
	],
	"accessors":[
		{
			"bufferView":0,
			"componentType":5126,
			"count":7580,
			"max":[
				0.18610207736492157,
				0.4719146192073822,
				0.23783846199512482
			],
			"min":[
				-0.1886746734380722,
				-0.47561126947402954,
				-0.23607011139392853
			],
			"type":"VEC3"
		},
		{
			"bufferView":1,
			"componentType":5126,
			"count":7580,
			"type":"VEC3"
		},
		{
			"bufferView":2,
			"componentType":5126,
			"count":7580,
			"type":"VEC2"
		},
		{
			"bufferView":3,
			"componentType":5123,
			"count":27630,
			"type":"SCALAR"
		}
	],
	"bufferViews":[
		{
			"buffer":0,
			"byteLength":90960,
			"byteOffset":0,
			"target":34962
		},
		{
			"buffer":0,
			"byteLength":90960,
			"byteOffset":90960,
			"target":34962
		},
		{
			"buffer":0,
			"byteLength":60640,
			"byteOffset":181920,
			"target":34962
		},
		{
			"buffer":0,
			"byteLength":55260,
			"byteOffset":242560,
			"target":34963
		}
	],
	"samplers":[
		{
			"magFilter":9729,
			"minFilter":9987
		}
	],
	"buffers":[
		{
			"byteLength":297820,
			"uri":"juana.bin"
		}
	]
}
